<?xml version="1.0" standalone="no"?>
<!DOCTYPE svg PUBLIC "-//W3C//DTD SVG 20010904//EN"
 "http://www.w3.org/TR/2001/REC-SVG-20010904/DTD/svg10.dtd">
<svg version="1.0" xmlns="http://www.w3.org/2000/svg"
 width="2048.000000pt" height="2048.000000pt" viewBox="0 0 2048.000000 2048.000000"
 preserveAspectRatio="xMidYMid meet">

<g transform="translate(0.000000,2048.000000) scale(0.100000,-0.100000)"
fill= "#ae102c" stroke="none">
<path d="M9920 19143 c-140 -4 -490 -31 -690 -54 -2418 -272 -4647 -1529
-6151 -3469 -1485 -1915 -2138 -4310 -1833 -6720 329 -2604 1791 -4955 3994
-6419 1149 -764 2439 -1252 3790 -1435 454 -62 745 -81 1235 -81 498 0 779 18
1245 81 1705 229 3348 968 4665 2097 1219 1046 2120 2351 2665 3862 562 1559
677 3324 324 4960 -474 2189 -1729 4116 -3545 5441 -1236 902 -2677 1475
-4189 1668 -494 63 -970 85 -1510 69z m930 -233 c1233 -88 2343 -392 3415
-935 1314 -665 2437 -1640 3288 -2856 411 -587 817 -1360 1037 -1974 94 -262
129 -368 181 -540 162 -540 265 -1057 329 -1645 57 -526 58 -1207 4 -1760
-151 -1546 -697 -3009 -1593 -4268 -630 -887 -1418 -1653 -2321 -2257 -1677
-1122 -3685 -1637 -5695 -1459 -2522 222 -4808 1498 -6339 3539 -1500 1998
-2082 4561 -1595 7020 382 1928 1396 3673 2889 4974 1472 1282 3325 2043 5260
2161 96 6 202 12 235 14 111 7 759 -3 905 -14z"/>
<path d="M9810 18799 c-818 -46 -1560 -188 -2326 -444 -2032 -680 -3767 -2110
-4834 -3985 -956 -1681 -1326 -3642 -1050 -5561 152 -1055 493 -2067 1008
-2994 396 -711 871 -1341 1452 -1926 329 -331 597 -565 955 -834 427 -321 827
-570 1300 -810 282 -143 426 -208 705 -320 786 -315 1607 -512 2460 -590 576
-52 1214 -44 1785 21 1965 224 3781 1102 5190 2509 1431 1428 2321 3292 2524
5285 35 341 45 536 45 905 0 369 -10 564 -45 905 -263 2574 -1675 4916 -3839
6366 -526 353 -1053 631 -1632 863 -1035 414 -2151 625 -3273 620 -154 -1
-345 -6 -425 -10z m815 -79 c1276 -54 2474 -370 3600 -949 2389 -1229 4086
-3502 4574 -6126 100 -539 144 -1025 144 -1590 0 -663 -68 -1280 -209 -1905
-570 -2521 -2248 -4669 -4564 -5839 -1029 -520 -2086 -813 -3270 -907 -300
-24 -963 -24 -1260 0 -1225 97 -2269 393 -3365 954 -1181 603 -2281 1561
-3077 2677 -1333 1870 -1867 4199 -1483 6470 143 844 401 1634 786 2405 346
694 760 1308 1274 1890 162 184 578 599 755 754 869 760 1830 1322 2905 1698
1006 351 2112 514 3190 468z"/>
<path d="M12596 18049 c-33 -26 -33 -49 0 -134 46 -125 25 -149 -126 -142 -91
5 -213 32 -396 88 -44 14 -81 19 -97 15 -38 -9 -60 -58 -55 -118 7 -73 26 -86
128 -94 101 -7 212 -35 281 -70 59 -29 62 -53 9 -71 -47 -16 -98 -16 -205 2
-108 18 -205 19 -239 4 -28 -13 -49 -56 -44 -90 6 -42 48 -54 218 -57 121 -3
167 0 216 13 76 20 104 11 104 -35 0 -54 -109 -114 -268 -147 -41 -8 -88 -13
-105 -10 -48 7 -89 -9 -129 -50 -33 -35 -37 -45 -47 -125 -8 -69 -21 -112 -60
-200 -54 -122 -67 -177 -57 -233 5 -26 14 -39 33 -46 14 -5 132 -23 262 -39
389 -49 525 -79 716 -157 235 -96 461 -237 553 -346 103 -122 235 -245 287
-268 40 -18 51 -19 76 -9 16 7 29 18 29 24 0 38 -37 140 -75 207 -61 109 -61
109 -19 150 47 45 70 84 98 166 33 94 138 620 130 646 -19 62 -91 120 -196
159 -31 11 -64 28 -72 37 -14 15 -14 19 1 40 24 35 90 25 205 -33 96 -48 144
-57 191 -35 27 12 127 210 127 251 0 42 -44 83 -150 144 -197 111 -444 211
-645 260 -140 34 -185 32 -230 -8 -76 -66 -117 -207 -81 -276 24 -46 49 -58
161 -81 103 -21 148 -44 153 -78 5 -31 -21 -35 -129 -22 -125 14 -219 0 -281
-41 -24 -16 -83 -73 -132 -126 -141 -151 -185 -176 -258 -138 -39 20 -118 93
-118 109 0 14 29 28 87 44 75 20 112 88 153 282 28 136 50 175 120 215 152 88
179 115 187 186 7 57 -10 90 -77 154 -108 104 -177 128 -234 83z m746 -482
c62 -24 165 -63 230 -86 122 -45 169 -73 200 -118 23 -36 23 -58 -2 -83 -33
-33 -72 -26 -132 26 -76 66 -213 130 -323 150 -49 10 -98 24 -107 32 -24 21
-40 80 -27 103 14 27 35 24 161 -24z m-217 -441 c40 -17 60 -47 43 -64 -32
-32 -146 6 -131 44 5 12 29 29 51 33 1 1 18 -5 37 -13z m-968 -110 c57 -49 29
-162 -64 -266 -50 -56 -93 -83 -117 -74 -57 22 -6 253 73 332 39 38 70 41 108
8z m1311 -11 c51 -43 70 -126 30 -133 -22 -4 -128 94 -128 117 0 45 53 54 98
16z m-458 -70 c52 -26 70 -45 70 -74 0 -35 -26 -71 -51 -71 -49 0 -179 94
-179 130 0 50 78 57 160 15z m-569 -122 c101 -60 18 -216 -93 -174 -76 29 -88
88 -32 151 41 45 76 52 125 23z m1007 -73 c96 -48 147 -121 110 -158 -20 -20
-51 -14 -108 21 -61 36 -120 106 -120 143 0 34 41 32 118 -6z m-554 -34 c65
-27 101 -106 74 -162 -32 -69 -161 -97 -229 -51 -43 29 -99 103 -99 131 0 25
42 70 80 85 37 14 136 13 174 -3z m421 -199 c51 -27 88 -55 102 -76 41 -61 23
-171 -32 -201 -19 -10 -36 -10 -86 -1 -85 17 -141 45 -183 91 -68 75 -53 164
34 208 24 12 53 22 65 22 11 0 56 -20 100 -43z"/>
<path d="M7330 17899 c-58 -18 -69 -33 -58 -82 5 -22 25 -76 44 -120 40 -91
42 -118 11 -171 -29 -53 -65 -70 -356 -166 -252 -83 -332 -118 -401 -177 -51
-44 -70 -80 -70 -137 0 -33 6 -52 26 -75 52 -62 139 -37 349 99 108 69 248
149 420 239 17 8 60 17 97 19 62 4 67 3 83 -21 15 -23 15 -28 2 -54 -9 -15
-59 -68 -112 -117 -84 -77 -294 -306 -408 -445 -81 -99 -202 -340 -242 -481
-26 -94 -25 -204 3 -258 27 -51 73 -82 123 -82 78 0 129 98 174 337 43 231 80
326 183 482 64 98 227 266 324 334 82 59 211 119 303 143 104 26 294 24 409
-4 154 -39 222 -80 431 -268 66 -59 143 -122 172 -140 85 -55 161 -62 207 -19
30 28 35 81 12 137 -37 88 -181 243 -291 313 -237 152 -620 230 -882 180 -94
-18 -124 -19 -158 -3 -31 14 -43 52 -24 75 18 21 130 73 234 107 132 44 256
66 379 66 130 0 174 10 221 51 66 58 71 139 10 165 -64 27 -174 12 -420 -56
-127 -35 -278 -69 -410 -91 -135 -24 -215 39 -215 167 0 24 -6 34 -26 43 -39
17 -104 22 -144 10z"/>
<path d="M10105 16359 c-4 -5 -22 -125 -40 -266 -19 -140 -39 -261 -45 -268
-13 -16 -247 -32 -261 -18 -8 8 -86 284 -130 462 -7 29 -20 56 -27 59 -14 5
-256 -23 -301 -35 -21 -5 -21 -9 -21 -272 0 -146 -4 -271 -8 -277 -4 -6 -61
-23 -127 -37 -112 -23 -121 -24 -136 -9 -9 10 -60 122 -112 251 -53 129 -99
236 -101 239 -6 5 -157 -31 -253 -60 -52 -16 -63 -23 -63 -41 0 -12 14 -131
31 -264 17 -133 29 -248 26 -256 -3 -7 -58 -32 -123 -55 -89 -32 -120 -39
-131 -31 -7 7 -68 106 -135 221 -67 116 -129 218 -137 228 -15 18 -21 16 -131
-29 -164 -68 -175 -74 -174 -96 1 -11 29 -123 63 -250 34 -126 61 -241 59
-255 -3 -21 -20 -33 -113 -78 -79 -38 -114 -51 -125 -44 -8 5 -85 100 -170
212 -85 112 -159 205 -165 207 -10 3 -250 -129 -272 -150 -10 -9 10 -65 87
-252 55 -132 100 -250 100 -261 0 -16 -25 -38 -98 -88 -53 -36 -105 -66 -114
-66 -9 0 -101 86 -205 190 -103 105 -191 190 -196 190 -14 0 -257 -190 -257
-201 0 -6 59 -111 130 -234 72 -123 130 -233 130 -243 0 -26 -166 -172 -195
-172 -12 0 -101 61 -211 146 -104 81 -199 153 -212 162 -23 15 -26 12 -138
-99 -63 -62 -114 -117 -114 -120 0 -4 72 -100 160 -214 95 -123 160 -216 160
-228 -1 -27 -145 -197 -167 -197 -9 0 -118 59 -243 130 -125 72 -232 130 -238
130 -9 0 -96 -105 -177 -213 l-28 -38 191 -193 c108 -108 192 -200 192 -210 0
-28 -122 -205 -146 -212 -13 -3 -106 31 -260 96 -150 64 -244 98 -252 93 -17
-10 -163 -264 -159 -277 2 -5 95 -79 207 -165 112 -86 208 -163 213 -172 7
-12 -4 -43 -45 -125 -46 -91 -59 -109 -80 -112 -14 -2 -133 26 -264 62 -131
37 -243 66 -249 66 -18 0 -136 -292 -124 -306 6 -7 106 -67 223 -134 118 -66
221 -129 230 -139 14 -16 12 -27 -27 -137 -38 -106 -45 -119 -67 -121 -14 -2
-135 12 -270 31 -185 26 -248 31 -257 22 -11 -11 -83 -267 -83 -297 0 -9 84
-49 238 -113 130 -54 244 -105 253 -112 15 -13 14 -24 -7 -131 -13 -64 -29
-122 -35 -129 -9 -11 -67 -14 -280 -14 l-269 0 -5 -22 c-13 -61 -24 -143 -31
-221 l-7 -86 54 -15 c30 -8 140 -38 244 -66 105 -27 201 -55 214 -60 23 -11
23 -11 16 -133 -4 -76 -12 -127 -20 -135 -8 -9 -108 -26 -269 -48 -141 -18
-261 -36 -267 -39 -5 -4 -9 -76 -9 -165 0 -157 0 -160 22 -165 13 -2 133 -18
268 -36 135 -17 250 -36 257 -42 6 -7 14 -64 18 -132 6 -96 4 -123 -7 -132
-10 -9 -493 -143 -514 -143 -8 0 4 -148 19 -250 l12 -75 272 -5 c170 -3 276
-9 283 -15 13 -14 58 -242 50 -256 -4 -5 -117 -57 -250 -113 -134 -57 -246
-108 -248 -115 -4 -12 66 -281 78 -301 5 -9 76 -2 269 24 144 19 267 33 275
30 7 -3 28 -49 46 -102 18 -53 37 -105 41 -114 5 -9 6 -23 3 -31 -3 -8 -109
-74 -235 -147 -126 -73 -232 -136 -234 -140 -5 -8 106 -284 119 -297 6 -6 42
3 346 84 91 24 174 41 185 39 28 -7 132 -216 119 -239 -5 -8 -101 -85 -214
-171 -113 -86 -207 -161 -208 -167 -6 -16 151 -279 167 -279 7 0 121 45 254
100 132 56 245 99 252 96 19 -7 145 -193 145 -214 0 -9 -85 -103 -190 -207
-104 -104 -190 -193 -190 -197 0 -5 166 -225 190 -251 4 -5 111 50 238 122
126 72 240 131 253 131 29 0 169 -158 169 -190 0 -12 -69 -111 -160 -228 -88
-114 -160 -211 -160 -216 0 -15 216 -226 231 -226 8 0 107 72 221 160 113 88
214 160 222 160 23 0 196 -151 196 -171 0 -9 -59 -119 -130 -245 -72 -125
-129 -233 -128 -240 4 -15 236 -194 251 -194 6 0 97 86 202 190 105 104 198
190 206 189 26 -1 204 -134 207 -155 2 -11 -42 -127 -98 -258 -76 -182 -97
-242 -89 -252 16 -19 253 -154 270 -154 8 0 84 93 169 206 85 113 162 210 170
214 11 6 52 -10 128 -46 102 -50 112 -57 112 -82 0 -15 -29 -135 -65 -266 -53
-193 -63 -242 -53 -251 14 -13 176 -85 247 -110 l42 -14 33 52 c18 29 79 132
137 231 57 98 110 181 117 184 7 2 66 -13 130 -35 103 -35 117 -43 120 -64 1
-13 -13 -134 -32 -269 -20 -151 -30 -249 -24 -256 5 -7 19 -14 31 -17 12 -2
74 -19 138 -36 64 -17 123 -31 131 -31 9 0 49 84 112 238 54 130 105 243 112
251 12 13 29 12 131 -8 65 -13 124 -27 131 -33 9 -8 12 -76 12 -279 0 -147 4
-270 8 -273 12 -7 211 -30 271 -31 l54 0 12 45 c7 25 36 133 64 240 29 107 56
205 61 218 10 22 11 22 132 16 72 -4 128 -11 136 -18 11 -11 43 -218 67 -436
13 -118 0 -110 184 -110 143 0 160 2 165 18 3 9 19 125 36 257 17 132 35 249
39 261 8 19 20 21 133 28 112 6 124 5 138 -12 8 -10 44 -129 80 -265 l65 -247
28 0 c55 0 282 33 294 42 9 8 13 81 15 282 l3 271 122 24 c68 13 129 21 136
18 7 -3 25 -33 40 -68 14 -35 60 -145 101 -244 l75 -180 38 2 c38 3 269 66
280 76 3 4 -10 122 -30 264 -20 147 -32 264 -27 273 9 17 221 93 246 88 8 -2
74 -104 146 -228 71 -124 133 -228 137 -232 8 -9 112 30 235 86 57 26 77 40
73 51 -23 58 -138 499 -133 510 7 19 221 126 238 120 7 -3 85 -100 173 -215
88 -115 166 -210 173 -210 16 0 255 135 270 152 8 10 -16 76 -89 253 -54 132
-99 249 -99 260 0 14 28 39 98 85 53 36 103 67 110 68 8 2 101 -83 207 -188
144 -143 198 -191 210 -186 30 11 244 181 245 193 0 6 -58 113 -130 236 -71
124 -130 233 -130 243 0 11 37 51 91 97 70 62 95 78 112 73 12 -3 112 -75 222
-160 110 -86 205 -155 212 -156 13 0 209 185 224 212 8 16 -15 52 -151 229
-89 116 -164 217 -166 224 -3 7 30 54 73 103 58 67 84 91 103 91 14 1 121 -55
253 -130 125 -72 230 -130 232 -128 14 15 195 254 195 258 0 4 -85 92 -190
196 -106 106 -190 198 -190 208 0 19 107 184 134 206 14 12 48 1 261 -88 134
-55 250 -101 257 -101 14 0 171 265 166 280 -2 4 -95 78 -208 164 -113 86
-209 165 -213 174 -10 21 88 231 111 239 7 3 130 -25 273 -62 142 -38 261 -66
265 -63 13 13 113 265 114 285 0 17 -40 44 -222 149 -123 70 -228 133 -234
141 -9 10 -3 41 26 130 21 64 45 120 53 124 8 5 124 -6 272 -27 142 -19 263
-33 269 -31 16 6 91 306 80 317 -5 5 -115 52 -244 105 -129 53 -240 102 -247
108 -9 9 -6 40 13 132 14 66 30 125 35 130 6 6 121 12 282 15 l272 5 19 157
c11 87 18 159 15 162 -2 3 -117 34 -254 71 -138 36 -256 72 -264 80 -11 10
-12 38 -6 134 6 104 10 123 26 131 10 6 126 24 256 41 131 16 248 32 261 35
22 4 22 5 20 166 l-3 162 -35 7 c-19 4 -134 20 -255 35 -121 15 -230 33 -241
40 -20 12 -22 25 -29 134 -6 98 -5 124 6 134 8 7 123 41 256 76 133 35 248 67
255 71 10 6 8 41 -7 166 l-20 158 -272 5 c-166 3 -276 9 -282 15 -6 6 -22 62
-35 125 -21 99 -22 117 -10 131 8 8 122 60 254 114 132 55 240 105 240 112 0
28 -72 289 -83 300 -9 8 -75 3 -271 -24 -165 -23 -265 -32 -274 -26 -8 5 -32
60 -53 123 -39 114 -39 114 -19 134 11 11 115 74 232 141 161 91 214 125 216
141 2 17 -98 272 -115 293 -2 3 -115 -26 -252 -63 -137 -37 -260 -66 -273 -64
-32 4 -138 209 -122 236 6 9 102 87 214 174 113 86 206 160 207 165 4 10 -131
251 -152 272 -12 12 -48 0 -258 -88 -156 -66 -252 -101 -263 -97 -24 8 -144
185 -144 211 0 12 74 94 191 211 l192 192 -97 126 c-53 69 -102 126 -108 126
-6 0 -114 -58 -238 -130 -125 -71 -234 -130 -242 -130 -8 0 -39 28 -69 62 -94
107 -108 128 -102 146 4 9 76 106 161 216 84 109 155 203 158 210 6 16 -221
240 -238 233 -7 -3 -103 -76 -213 -161 -112 -87 -209 -156 -221 -156 -28 0
-194 146 -194 171 0 11 59 120 130 243 72 124 130 229 130 234 0 11 -234 195
-253 200 -7 1 -97 -83 -202 -188 -104 -104 -197 -190 -205 -190 -8 0 -59 29
-113 65 -75 51 -97 70 -97 88 0 13 45 130 100 262 54 131 97 242 94 246 -2 5
-65 43 -139 85 -112 63 -138 74 -150 64 -8 -7 -85 -104 -171 -216 -85 -112
-162 -204 -169 -204 -27 0 -225 104 -230 121 -4 13 88 373 131 511 3 12 -5 22
-26 33 -52 27 -253 105 -270 105 -10 0 -59 -75 -138 -214 -67 -118 -131 -224
-140 -236 l-18 -22 -100 35 c-54 19 -109 38 -121 41 -31 10 -34 26 -19 128 49
335 59 430 46 438 -28 17 -301 83 -309 74 -4 -5 -52 -115 -106 -244 -54 -129
-104 -240 -112 -246 -10 -9 -41 -6 -126 12 -62 13 -118 26 -124 29 -10 3 -13
68 -13 274 0 247 -1 271 -17 280 -18 9 -247 41 -293 41 -24 0 -28 -10 -94
-255 -38 -141 -75 -260 -83 -266 -9 -8 -51 -9 -134 -4 -110 7 -121 9 -129 29
-5 11 -24 131 -41 266 -17 135 -36 251 -41 258 -13 16 -313 17 -323 1z m624
-1154 c1511 -139 2869 -920 3756 -2160 547 -765 864 -1640 946 -2611 15 -188
7 -753 -15 -929 -76 -634 -225 -1152 -485 -1690 -264 -545 -572 -977 -1006
-1410 -210 -211 -363 -344 -580 -505 -1738 -1295 -4116 -1361 -5920 -165
-1080 716 -1857 1804 -2170 3040 -112 442 -159 819 -158 1285 0 795 167 1522
512 2235 194 400 414 740 701 1085 130 156 467 494 620 621 621 519 1322 879
2080 1069 347 87 592 122 1060 154 105 7 496 -4 659 -19z"/>
<path d="M9950 13825 c0 -173 -3 -315 -7 -315 -5 1 -34 58 -66 128 -31 70 -61
133 -66 140 -6 10 -36 0 -126 -43 -66 -31 -120 -57 -122 -59 -4 -4 125 -288
136 -299 4 -4 60 17 123 48 64 30 119 55 122 55 3 0 6 -450 6 -1000 l0 -1000
335 0 335 0 0 1330 0 1330 -335 0 -335 0 0 -315z m460 -95 l0 -61 -127 3 -128
3 -3 58 -3 57 131 0 130 0 0 -60z m2 -256 c2 -34 -1 -58 -8 -61 -5 -2 -64 -2
-130 -1 l-119 3 -3 44 c-5 72 -7 71 132 71 l124 0 4 -56z m-2 -264 l0 -60
-130 0 -130 0 0 53 c0 30 3 57 7 60 3 4 62 7 130 7 l123 0 0 -60z m0 -270 l0
-61 -127 3 -128 3 -3 58 -3 57 131 0 130 0 0 -60z"/>
<path d="M10820 12695 l0 -1215 300 0 300 0 0 938 c1 810 3 934 15 918 8 -10
240 -428 516 -930 276 -501 504 -914 508 -919 6 -6 477 246 497 266 6 5 -1019
1871 -1041 1895 -10 11 -56 -11 -248 -117 -130 -72 -239 -131 -242 -131 -3 0
-5 115 -5 255 l0 255 -300 0 -300 0 0 -1215z m430 775 l0 -60 -130 0 -130 0 0
60 0 60 130 0 130 0 0 -60z m0 -260 l0 -60 -130 0 -130 0 0 60 0 60 130 0 130
0 0 -60z m734 -14 c14 -25 26 -47 26 -49 0 -7 -221 -130 -224 -125 -1 1 -15
25 -30 52 -27 47 -28 49 -10 60 96 56 200 112 206 109 3 -2 18 -23 32 -47z
m130 -232 c14 -26 26 -48 26 -49 0 -2 -50 -31 -111 -65 -88 -49 -113 -59 -121
-49 -18 28 -49 91 -46 94 13 14 214 122 220 119 3 -2 18 -25 32 -50z m-864
-24 l0 -60 -130 0 -130 0 0 60 0 60 130 0 130 0 0 -60z"/>
<path d="M9375 13587 c-265 -135 -656 -270 -955 -330 -137 -28 -342 -57 -402
-57 -26 0 -38 -4 -38 -14 0 -8 16 -75 35 -149 19 -74 35 -139 35 -146 0 -8
-42 -11 -140 -11 l-140 0 0 -170 0 -170 790 0 790 0 0 170 0 170 -592 1 c-399
1 -573 5 -533 11 472 71 881 191 1263 370 l92 43 -71 155 c-39 85 -71 156 -72
156 -1 1 -29 -12 -62 -29z"/>
<path d="M9480 12710 l0 -170 135 0 135 0 0 170 0 170 -135 0 -135 0 0 -170z"/>
<path d="M7770 12185 l0 -175 790 0 790 0 -2 173 -3 172 -787 3 -788 2 0 -175z"/>
<path d="M9480 12185 l0 -175 135 0 135 0 -2 173 -3 172 -132 3 -133 3 0 -176z"/>
<path d="M7770 11655 l0 -175 790 0 790 0 0 175 0 175 -790 0 -790 0 0 -175z"/>
<path d="M9480 11655 l0 -175 135 0 135 0 0 175 0 175 -135 0 -135 0 0 -175z"/>
<path d="M7270 11219 c-112 -13 -266 -55 -349 -96 -42 -21 -98 -60 -132 -93
l-59 -56 0 -350 0 -350 48 -47 48 -47 202 0 202 0 0 159 c0 390 46 541 166
541 l44 0 0 -350 0 -350 284 0 285 0 109 203 c324 598 433 808 430 824 -3 17
-37 18 -603 19 -330 1 -634 -2 -675 -7z"/>
<path d="M9190 11225 c0 -3 49 -29 108 -59 59 -30 114 -61 121 -70 11 -12 -31
-97 -268 -538 -154 -288 -283 -531 -286 -540 -7 -17 36 -18 728 -20 l735 -3
26 -24 c24 -23 26 -31 26 -108 0 -76 -2 -86 -25 -108 l-24 -25 -791 0 -791 0
53 -62 c30 -35 75 -98 102 -140 l48 -78 58 0 c52 0 63 -4 107 -38 66 -52 112
-107 136 -161 36 -81 10 -218 -59 -308 -13 -18 -71 -72 -127 -120 -205 -175
-519 -498 -615 -631 -87 -122 -100 -330 -23 -372 27 -14 3895 -14 3922 0 72
39 65 232 -15 358 -71 114 -403 456 -629 651 -115 98 -158 155 -182 235 -33
109 -12 196 67 282 75 82 113 104 179 104 l59 0 26 53 c83 163 269 348 470
467 l85 50 171 0 170 0 87 83 c182 172 392 285 673 361 112 31 286 65 293 58
3 -3 5 -47 5 -99 0 -66 -4 -95 -12 -97 -111 -32 -164 -71 -202 -148 l-26 -52
0 -383 0 -384 25 -48 c30 -60 96 -118 150 -132 22 -6 46 -13 53 -15 9 -2 12
-47 12 -177 l0 -173 -50 -13 c-69 -18 -132 -69 -164 -133 l-26 -52 0 -378 0
-379 25 -48 c31 -62 96 -117 159 -136 67 -20 237 -20 305 1 68 20 143 88 168
152 16 42 18 85 18 417 l0 370 -30 54 c-37 66 -83 105 -155 129 l-55 19 0 173
0 173 48 12 c92 23 170 110 188 209 6 36 9 185 7 400 -3 334 -4 342 -26 388
-39 77 -100 122 -210 154 -10 3 -12 31 -10 116 l3 113 159 32 c238 47 361 98
436 179 l40 44 0 210 0 210 -2725 0 c-1499 0 -2725 -2 -2725 -5z m4620 -1160
c0 -65 12 -75 95 -75 83 0 95 10 95 75 0 30 4 55 9 55 18 0 70 -70 76 -102 3
-18 5 -153 3 -300 l-3 -266 -31 -38 c-46 -58 -54 -55 -54 18 0 36 -5 69 -12
76 -16 16 -150 16 -166 0 -7 -7 -12 -39 -12 -75 0 -35 -4 -63 -8 -63 -15 0
-51 44 -67 82 -12 31 -15 85 -15 297 0 159 4 271 11 288 11 29 57 83 71 83 4
0 8 -25 8 -55z m-2054 -98 c21 -25 24 -38 24 -108 0 -72 -3 -82 -25 -104 l-24
-25 -395 0 -395 0 -27 24 c-24 20 -28 32 -32 90 -3 40 1 78 8 97 25 59 27 59
453 56 l389 -2 24 -28z m-511 -512 c22 -22 25 -32 25 -105 0 -72 -3 -84 -24
-105 -13 -13 -39 -26 -57 -30 -19 -3 -397 -5 -841 -3 l-808 3 -27 28 c-26 25
-28 33 -28 108 0 76 2 82 28 105 l28 24 840 0 840 0 24 -25z m46 -530 c38 -20
49 -50 49 -131 0 -59 -3 -68 -29 -95 l-29 -29 -905 0 -904 0 -27 26 c-24 24
-26 34 -26 103 0 82 13 115 54 131 11 5 418 9 904 9 778 1 887 -1 913 -14z
m2519 -369 c0 -63 4 -66 95 -66 91 0 95 3 95 67 0 64 9 65 54 9 l31 -38 0
-287 0 -288 -28 -36 c-40 -52 -74 -67 -155 -67 -84 0 -126 23 -159 90 -22 42
-23 55 -23 297 0 206 3 261 15 291 16 38 52 82 67 82 4 0 8 -24 8 -54z m-2024
-229 c21 -25 24 -38 24 -106 0 -72 -2 -79 -28 -104 l-28 -27 -1378 0 -1377 0
-24 25 c-23 22 -25 32 -25 109 0 82 1 85 31 110 l31 26 1375 -2 1375 -3 24
-28z"/>
<path d="M8719 11007 c-43 -78 -179 -333 -304 -567 -125 -234 -292 -544 -370
-690 -78 -146 -341 -637 -584 -1092 l-443 -827 -81 44 c-430 231 -553 295
-560 292 -5 -1 -55 -83 -111 -182 l-103 -179 69 -64 c83 -78 140 -185 165
-307 l17 -81 560 -299 c309 -165 568 -300 576 -300 8 0 78 111 172 275 86 151
163 284 170 295 11 17 14 -72 18 -522 5 -527 6 -542 26 -569 11 -15 33 -37 48
-48 l27 -21 2393 -3 2393 -2 34 23 c18 12 44 38 56 56 l23 34 0 592 0 592 -23
34 c-12 18 -38 44 -56 56 l-34 23 -2387 0 -2387 0 -33 -22 c-52 -36 -73 -71
-78 -133 -2 -30 -6 -55 -8 -55 -8 0 -548 290 -557 299 -6 6 98 210 255 503
146 271 545 1013 887 1650 341 636 621 1163 621 1171 0 14 -275 167 -301 167
-8 0 -48 -64 -90 -143z m4016 -3612 l25 -24 0 -506 0 -506 -25 -24 -24 -25
-2296 0 -2296 0 -24 24 c-13 13 -26 39 -30 57 -3 19 -5 248 -3 510 3 453 4
478 22 498 l19 21 2304 0 2304 0 24 -25z"/>
<path d="M8435 7201 c-55 -15 -112 -31 -127 -35 -27 -6 -28 -9 -28 -72 0 -58
2 -65 18 -60 79 24 198 44 209 34 10 -8 13 -74 13 -284 l0 -274 115 0 115 0 0
344 c0 189 -3 351 -6 360 -11 28 -187 20 -309 -13z"/>
<path d="M9101 7216 c-40 -22 -50 -54 -51 -159 0 -106 14 -150 50 -162 18 -6
16 -10 -20 -44 l-40 -38 0 -122 c0 -122 0 -123 29 -152 l29 -29 429 0 c469 0
458 -1 483 59 8 19 11 68 8 139 -3 101 -5 113 -27 136 -14 14 -30 26 -38 26
-20 0 -16 8 20 39 32 29 32 30 35 133 3 90 0 107 -18 136 -11 18 -32 37 -46
42 -42 16 -813 12 -843 -4z m689 -135 c15 -29 12 -104 -6 -129 -15 -22 -19
-22 -251 -22 -274 0 -273 0 -273 82 0 93 -14 88 270 88 236 0 250 -1 260 -19z
m-2 -283 c7 -7 12 -40 12 -80 0 -56 -3 -69 -19 -78 -12 -6 -111 -10 -251 -10
-140 0 -239 4 -251 10 -16 9 -19 22 -19 78 0 40 5 73 12 80 9 9 80 12 258 12
178 0 249 -3 258 -12z"/>
<path d="M10329 7201 l-29 -29 0 -162 0 -162 29 -29 29 -29 336 0 c381 0 366
3 366 -80 0 -81 3 -80 -269 -80 -174 0 -242 3 -254 13 -12 8 -51 11 -127 9
l-110 -3 0 -40 c0 -31 7 -47 29 -70 l29 -29 429 0 c467 0 458 -1 482 58 8 20
11 111 9 316 l-3 288 -33 29 -32 29 -426 0 -426 0 -29 -29z m719 -113 c7 -7
12 -40 12 -78 0 -38 -5 -71 -12 -78 -9 -9 -80 -12 -258 -12 -178 0 -249 3
-258 12 -13 13 -17 149 -5 161 12 13 508 8 521 -5z"/>
<path d="M11593 7206 l-28 -24 -3 -306 -3 -307 30 -29 29 -30 432 0 431 0 24
24 c32 32 37 69 33 225 l-3 133 -33 29 -32 29 -334 0 c-275 0 -336 2 -345 14
-7 9 -11 38 -9 73 l3 58 250 3 c163 2 257 -1 270 -8 12 -6 64 -10 125 -8 l105
3 -1 44 c-1 37 -7 49 -33 73 l-31 28 -425 0 -424 0 -28 -24z m711 -402 c11
-11 16 -34 16 -76 0 -101 7 -98 -267 -98 -142 0 -242 4 -254 10 -16 9 -19 22
-19 83 0 44 5 78 12 85 9 9 79 12 254 12 207 0 245 -2 258 -16z"/>
<path d="M3385 14926 c-22 -14 -54 -46 -71 -73 -156 -242 -167 -264 -162 -326
2 -31 8 -43 21 -45 31 -6 152 83 181 133 30 50 60 75 93 75 33 0 39 -40 21
-130 -14 -64 -14 -80 -3 -107 12 -28 19 -33 47 -33 25 0 41 9 69 40 41 45 81
53 99 21 16 -31 11 -62 -20 -121 -37 -69 -41 -135 -9 -145 53 -17 121 21 155
87 65 125 50 365 -27 453 -43 48 -168 141 -231 170 -67 31 -112 31 -163 1z"/>
<path d="M16384 14836 c-12 -8 -27 -29 -34 -45 -11 -26 -9 -35 9 -64 34 -55
118 -128 246 -214 130 -87 189 -143 200 -192 9 -41 1 -51 -42 -51 -51 0 -132
47 -268 157 -136 109 -163 123 -238 123 -73 0 -95 -23 -78 -79 17 -58 70 -131
123 -171 26 -19 87 -50 135 -69 48 -19 101 -47 117 -63 27 -27 28 -32 25 -108
-3 -60 -9 -85 -25 -107 -43 -58 -101 -44 -262 64 -266 179 -577 293 -696 253
-59 -19 -76 -81 -33 -124 46 -46 174 -110 346 -173 164 -60 256 -99 457 -194
97 -46 168 -110 183 -166 18 -66 51 -273 51 -318 0 -133 -51 -395 -109 -559
-74 -210 -62 -280 51 -300 147 -26 211 157 243 698 15 251 22 300 49 341 23
36 56 32 98 -12 76 -79 96 -150 107 -370 5 -103 12 -157 21 -168 28 -34 117
-56 147 -37 43 27 56 180 28 347 -8 50 -15 113 -14 140 0 85 39 165 80 165 36
0 51 -55 65 -234 19 -234 43 -406 61 -434 8 -13 35 -33 59 -44 37 -16 51 -18
76 -9 78 27 82 55 39 229 -17 65 -34 173 -40 242 -11 131 -16 160 -52 355 -15
83 -22 162 -23 255 -1 156 12 196 73 216 18 6 37 17 42 25 14 23 10 81 -9 119
-31 63 -94 75 -197 40 -92 -32 -109 -28 -241 51 -168 101 -240 151 -481 331
-116 87 -224 161 -240 164 -17 3 -36 -1 -49 -10z m762 -701 c93 -45 136 -88
163 -159 19 -51 19 -58 5 -105 -19 -65 -94 -147 -188 -206 -103 -64 -126 -70
-181 -51 -61 20 -116 65 -156 127 -28 44 -33 62 -37 129 -6 110 2 146 38 165
16 8 42 15 59 15 36 0 83 17 93 33 4 7 8 23 8 36 0 72 73 77 196 16z"/>
<path d="M4600 14675 c-8 -2 -75 -14 -149 -25 -179 -29 -246 -51 -335 -111
-90 -60 -164 -139 -256 -274 -100 -147 -113 -155 -179 -118 -44 25 -45 25 -96
9 -28 -9 -61 -16 -72 -16 -33 0 -64 32 -97 101 -36 75 -57 83 -132 50 -26 -12
-53 -21 -61 -21 -16 0 -33 40 -33 79 0 52 -20 91 -46 91 -39 0 -91 -26 -110
-55 -14 -21 -16 -38 -10 -98 11 -106 8 -126 -24 -196 -17 -35 -33 -81 -36
-102 -6 -35 -4 -40 20 -51 21 -9 37 -9 69 -1 58 16 73 4 113 -84 l34 -74 79 6
c66 6 85 4 123 -13 39 -17 48 -27 64 -67 17 -46 17 -52 1 -129 -9 -45 -35
-130 -58 -191 -54 -147 -79 -245 -79 -319 0 -56 6 -73 72 -205 86 -170 129
-220 237 -274 76 -38 136 -48 159 -25 34 34 -6 139 -111 291 -121 174 -138
232 -112 390 58 353 163 634 300 805 107 132 333 325 440 374 47 21 61 23 220
21 204 -3 231 3 241 55 8 42 -9 116 -35 152 -15 21 -27 25 -72 27 -30 0 -61 0
-69 -2z m-979 -686 c11 -11 18 -27 15 -36 -3 -8 -6 -21 -6 -28 0 -8 -14 -30
-31 -50 -59 -67 -117 -36 -89 49 12 38 55 86 76 86 8 0 23 -9 35 -21z"/>
<path d="M4413 14200 c-29 -12 -32 -27 -35 -215 -3 -140 -6 -164 -24 -195 -23
-39 -67 -61 -86 -42 -8 8 -12 55 -13 134 -1 141 -13 175 -69 202 -38 18 -92
21 -128 7 -38 -14 -86 -71 -139 -163 -112 -195 -163 -336 -175 -478 -8 -97 1
-114 79 -149 89 -40 94 -49 54 -101 -57 -76 -67 -94 -67 -127 0 -40 19 -59 73
-74 50 -14 112 -1 158 33 16 12 56 56 89 98 62 78 118 120 163 120 35 0 40
-12 42 -95 1 -39 5 -76 9 -83 4 -7 23 -12 42 -12 95 0 169 100 168 225 0 48
-8 75 -37 135 -50 100 -49 141 3 274 22 56 40 107 40 114 0 6 18 59 40 117 22
58 40 121 40 140 0 46 -34 113 -63 124 -37 14 -141 21 -164 11z m-313 -391 c0
-95 -107 -299 -157 -299 -17 0 -43 52 -43 87 0 34 96 242 122 265 19 17 22 17
49 1 24 -14 29 -24 29 -54z m66 -324 c15 -60 -19 -128 -73 -146 -31 -10 -38
-9 -54 7 -16 17 -17 24 -7 56 27 90 118 146 134 83z"/>
<path d="M2772 13813 c-22 -9 -40 -57 -51 -136 -6 -42 -22 -104 -36 -137 -36
-85 -33 -121 11 -170 95 -105 387 -177 482 -120 41 25 104 122 131 202 35 104
22 207 -29 223 -39 12 -78 -24 -130 -123 -19 -36 -40 -68 -47 -70 -6 -2 -19 8
-28 21 -13 21 -14 35 -5 92 18 113 -4 154 -76 140 -45 -8 -60 -34 -79 -130
-21 -112 -59 -160 -109 -137 -35 16 -33 36 15 150 23 53 44 114 47 134 4 36 3
39 -31 53 -38 16 -44 17 -65 8z"/>
<path d="M2955 10021 c-100 -26 -161 -86 -245 -242 -30 -56 -73 -122 -95 -147
-36 -39 -46 -45 -92 -49 -97 -10 -138 47 -131 182 3 60 10 86 41 146 20 40 36
73 34 74 -1 2 -39 5 -84 7 l-82 5 -7 -76 c-14 -149 8 -328 49 -407 21 -41 70
-90 110 -111 41 -21 141 -28 195 -14 76 21 139 96 226 268 62 124 118 173 197
173 130 0 174 -229 67 -347 l-20 -22 38 -6 c82 -13 100 -17 118 -22 18 -5 18
2 13 173 -6 212 -22 273 -91 352 -47 54 -162 84 -241 63z"/>
<path d="M17276 9904 c-4 -53 -10 -102 -12 -109 -3 -8 9 -15 38 -19 76 -12
400 -179 381 -196 -24 -22 -336 -136 -403 -148 l-45 -8 -7 -124 c-4 -69 -9
-137 -12 -152 -3 -16 -3 -28 0 -28 3 0 24 13 47 29 54 36 207 113 395 198
l147 66 130 -12 c117 -11 211 -24 257 -37 14 -4 17 7 22 73 4 43 9 101 12 128
l5 50 -195 1 c-195 2 -196 2 -243 30 -117 68 -336 219 -488 336 l-22 18 -7
-96z"/>
<path d="M3266 9295 c-42 -32 -433 -104 -766 -141 -85 -10 -156 -19 -158 -20
-2 -1 3 -40 12 -86 8 -45 18 -100 21 -120 3 -21 8 -38 11 -38 3 0 40 9 82 19
89 23 344 72 348 68 5 -5 42 -207 49 -268 l7 -56 -74 -11 c-118 -19 -307 -42
-339 -42 -16 0 -29 -2 -29 -5 0 -12 42 -240 44 -243 2 -1 59 11 127 28 198 47
656 120 763 120 69 0 69 0 44 148 -16 98 -25 129 -33 122 -29 -24 -173 -62
-362 -94 -37 -6 -35 -11 -64 164 -19 117 -23 160 -14 160 3 0 60 9 128 19 67
11 157 23 200 26 42 4 77 10 77 12 0 3 -7 46 -16 97 -8 50 -17 106 -20 124 -5
36 -10 38 -38 17z"/>
<path d="M17186 8977 c-3 -12 -15 -74 -26 -137 -23 -126 -102 -476 -126 -554
-7 -27 -14 -53 -14 -56 0 -7 108 -50 123 -50 3 0 3 15 1 33 -5 30 20 229 30
246 10 15 605 -117 779 -172 55 -18 79 -22 82 -14 2 7 13 59 25 115 12 57 24
110 27 118 4 10 -4 14 -31 14 -90 0 -805 145 -828 168 -7 8 39 156 67 214 10
21 17 39 14 41 -2 1 -30 15 -61 29 l-58 28 -4 -23z"/>
<path d="M2515 8144 c11 -28 41 -124 52 -164 10 -39 8 -38 101 -15 34 9 106
17 159 18 l96 2 29 -85 c16 -47 33 -102 38 -123 l8 -39 -61 -39 c-34 -22 -103
-60 -153 -86 l-92 -45 28 -82 c15 -44 33 -105 39 -133 7 -29 16 -53 20 -53 4
0 23 16 42 36 66 69 523 387 732 509 37 21 67 42 67 45 0 3 -18 55 -39 115
-27 75 -44 109 -53 106 -77 -25 -896 12 -1002 45 -15 5 -18 3 -11 -12z m853
-160 c4 -2 -156 -111 -245 -167 l-42 -27 -26 83 c-14 45 -28 90 -31 99 -4 14
4 18 48 20 53 4 290 -2 296 -8z"/>
<path d="M16960 8033 c-19 -65 -36 -123 -38 -129 -2 -7 25 -13 71 -17 107 -9
576 -151 772 -233 44 -19 82 -34 86 -34 4 0 10 16 14 36 3 20 19 75 35 122 17
47 29 86 27 87 -1 1 -49 11 -107 24 -221 48 -646 182 -815 257 -6 3 -26 -46
-45 -113z"/>
<path d="M16827 7661 c-76 -163 -91 -214 -91 -316 -1 -74 3 -97 21 -130 44
-83 127 -128 233 -129 85 0 142 25 273 122 56 41 121 83 145 94 55 25 110 17
152 -22 43 -40 42 -109 -2 -192 -31 -58 -100 -130 -145 -151 -13 -6 -23 -13
-23 -16 0 -8 149 -86 154 -80 2 2 27 50 55 106 74 148 101 236 101 325 -1 119
-43 187 -150 237 -111 52 -183 32 -358 -102 -128 -98 -178 -121 -235 -112 -48
9 -102 56 -113 100 -18 72 44 193 124 241 l52 31 -70 47 c-38 25 -71 46 -73
46 -2 0 -25 -45 -50 -99z"/>
<path d="M3690 7509 c-70 -61 -497 -254 -738 -334 l-110 -36 34 -74 c19 -41
34 -78 34 -84 0 -20 18 -19 51 3 106 72 565 306 601 306 4 0 -36 -60 -90 -132
-122 -166 -307 -425 -356 -499 l-37 -56 42 -81 42 -81 98 50 c235 117 603 274
741 314 l57 16 -39 80 c-21 44 -41 86 -43 92 -3 8 -13 5 -28 -9 -57 -52 -523
-294 -537 -279 -6 6 228 334 317 444 129 160 119 130 78 219 -20 42 -45 98
-56 125 -11 26 -22 47 -23 47 -2 -1 -19 -14 -38 -31z"/>
<path d="M16605 7011 c-22 -10 -52 -32 -67 -48 -24 -25 -278 -476 -278 -493 0
-3 21 -11 46 -18 95 -26 600 -296 770 -413 l42 -28 61 111 c34 61 58 114 54
118 -4 4 -24 13 -43 20 -34 13 -251 118 -318 153 l-32 18 20 38 c27 53 65 81
110 81 48 0 236 -34 325 -59 l70 -20 17 22 c10 12 18 25 18 30 0 4 23 47 50
96 28 49 50 90 50 92 0 2 -22 3 -48 1 -26 -2 -130 8 -231 23 -100 14 -196 23
-212 20 -16 -4 -43 -18 -60 -32 l-31 -26 7 46 c11 70 -10 138 -58 193 -74 85
-178 114 -262 75z m90 -219 c84 -41 125 -93 125 -157 0 -34 -52 -155 -67 -155
-8 0 -252 134 -277 153 -18 13 -18 15 4 58 63 123 118 149 215 101z"/>
<path d="M3923 6559 c-172 -29 -396 -189 -463 -330 -25 -54 -30 -76 -30 -139
1 -130 57 -251 209 -447 106 -137 90 -132 202 -60 72 46 245 142 277 153 1 0
-22 37 -50 82 -29 44 -61 95 -71 113 l-17 31 -23 -33 c-23 -36 -191 -155 -233
-165 -38 -10 -72 21 -110 99 -41 85 -43 132 -10 202 41 90 205 219 357 282 48
19 82 26 134 27 115 1 177 -44 239 -174 27 -57 31 -76 31 -152 0 -49 2 -88 5
-88 2 0 44 14 92 31 81 29 87 33 77 52 -44 81 -159 271 -189 312 -47 63 -113
124 -172 159 -39 23 -162 58 -193 55 -5 -1 -34 -5 -62 -10z"/>
<path d="M16085 6213 c-55 -80 -136 -196 -181 -257 l-81 -110 46 -16 c54 -18
140 -73 351 -223 180 -128 308 -226 367 -280 l41 -38 43 63 c68 100 229 328
277 391 l44 58 -48 52 c-27 29 -52 53 -55 55 -4 2 -10 -13 -13 -32 -9 -48 -77
-180 -124 -241 -43 -57 -78 -68 -134 -39 -51 26 -218 146 -218 157 0 13 54 82
109 140 l45 47 -49 44 -50 43 -28 -51 c-15 -28 -46 -79 -69 -113 l-40 -63 -47
32 c-39 27 -165 119 -210 154 -12 9 -4 25 46 90 33 43 86 105 118 137 l58 58
-43 45 c-25 24 -47 44 -50 44 -3 -1 -50 -67 -105 -147z"/>
<path d="M4602 5881 c-36 -64 -352 -339 -607 -528 l-103 -77 46 -51 c26 -28
63 -72 82 -97 l35 -46 95 92 c120 115 225 206 236 205 9 0 100 -103 173 -195
l40 -51 -132 -105 c-73 -57 -151 -118 -174 -134 -24 -16 -43 -31 -43 -34 0 -3
24 -32 53 -66 29 -33 65 -76 79 -94 l27 -34 98 95 c159 153 530 460 621 515
l30 17 -62 71 c-33 39 -73 87 -88 106 -15 19 -29 32 -31 30 -2 -3 -19 -27 -38
-53 -28 -41 -205 -206 -247 -231 -13 -8 -58 37 -165 168 l-58 71 43 38 c48 42
246 196 272 212 14 9 10 18 -36 71 -29 33 -69 79 -88 103 l-35 42 -23 -40z"/>
<path d="M15778 5780 c-1 -5 -31 -40 -65 -79 l-62 -69 34 -26 c59 -45 235
-295 360 -510 l28 -48 -24 7 c-71 23 -492 220 -559 263 l-78 50 -43 -51 c-24
-29 -68 -78 -98 -109 -43 -46 -50 -58 -34 -58 48 0 422 -151 802 -324 80 -36
148 -63 152 -59 4 5 28 35 54 67 37 46 46 63 38 75 -6 9 -104 178 -218 376
-202 349 -265 467 -265 493 0 14 -17 16 -22 2z"/>
<path d="M15050 5007 l-95 -93 52 -34 c84 -54 385 -366 544 -563 43 -53 81
-97 84 -98 4 0 47 39 97 86 l91 86 -74 67 c-143 127 -440 442 -542 573 -28 37
-54 68 -57 68 -3 0 -48 -41 -100 -92z"/>
<path d="M5420 4986 c-50 -50 -610 -351 -791 -426 l-86 -36 83 -77 83 -78 41
44 c48 53 205 167 229 167 10 0 57 -38 107 -84 l89 -84 -40 -78 c-22 -42 -62
-110 -88 -151 l-49 -74 49 -42 c26 -23 74 -66 105 -95 l57 -54 17 59 c22 77
84 221 180 423 81 172 210 427 225 446 5 6 -25 38 -82 85 -50 41 -94 75 -98
77 -3 1 -18 -9 -31 -22z m-124 -332 l-76 -156 -57 50 c-88 76 -101 92 -83 103
74 47 285 167 289 164 2 -3 -31 -75 -73 -161z"/>
<path d="M14778 4757 c-37 -29 -69 -55 -73 -58 -3 -4 31 -44 76 -90 112 -115
339 -394 328 -403 -7 -6 -443 180 -556 237 l-113 57 -78 -63 c-43 -34 -91 -71
-106 -82 l-28 -20 78 -80 c120 -121 443 -565 483 -662 7 -18 18 -33 23 -33 6
0 31 17 57 38 25 22 59 47 74 57 l28 18 -78 81 c-43 45 -106 113 -140 151 -66
75 -254 318 -249 322 1 1 108 -43 237 -98 279 -120 525 -219 542 -219 6 1 40
27 74 59 l63 58 -38 44 c-159 185 -496 653 -517 719 -3 11 -9 20 -13 19 -4 0
-37 -24 -74 -52z"/>
<path d="M5905 4565 c-37 -98 -313 -476 -498 -684 l-57 -63 58 -41 c31 -22 78
-57 103 -78 l47 -39 40 68 c81 136 350 500 479 648 l62 72 -92 68 c-51 38 -99
74 -108 81 -14 11 -19 6 -34 -32z"/>
<path d="M14094 4245 c-12 -8 -53 -32 -92 -53 l-72 -39 31 -29 c51 -48 111
-138 227 -341 120 -210 142 -262 142 -335 0 -41 -5 -54 -37 -89 -115 -127
-246 -128 -330 -3 -86 127 -272 467 -329 600 -9 21 -14 19 -126 -46 l-117 -67
35 -34 c47 -45 109 -144 240 -379 147 -264 203 -320 325 -320 75 0 206 54 320
131 107 72 158 153 159 250 0 75 -13 108 -115 295 -116 210 -200 379 -216 432
-14 47 -16 48 -45 27z"/>
<path d="M6617 4092 c-9 -50 -77 -190 -183 -369 -205 -348 -241 -400 -295
-429 -37 -18 -117 -18 -163 1 l-37 16 -14 -35 c-21 -50 -20 -52 28 -71 139
-57 276 -71 353 -36 64 29 102 77 213 273 156 273 249 426 298 491 24 33 43
60 41 61 -2 2 -34 20 -73 41 -38 21 -89 51 -112 67 -23 15 -44 28 -46 28 -2 0
-7 -17 -10 -38z"/>
<path d="M7012 3846 c-17 -74 -50 -152 -146 -351 -73 -151 -198 -382 -242
-450 l-15 -24 111 -55 c62 -31 115 -56 119 -56 3 0 15 24 25 53 50 143 275
611 364 757 l40 65 -121 57 c-66 32 -120 58 -121 58 -1 0 -7 -24 -14 -54z"/>
<path d="M12865 3619 c-249 -70 -365 -122 -454 -204 -137 -128 -162 -292 -79
-522 64 -178 159 -288 280 -324 54 -16 187 -11 259 10 136 39 379 147 379 169
0 4 -15 50 -34 102 -18 52 -46 144 -61 203 -23 89 -31 107 -44 101 -9 -4 -64
-23 -122 -43 l-106 -37 29 -35 c31 -39 98 -214 98 -258 0 -15 -8 -35 -18 -44
-30 -27 -103 -49 -169 -50 -80 -1 -140 34 -193 113 -51 75 -109 225 -127 329
-31 175 22 279 171 331 67 24 192 26 251 5 22 -8 42 -15 44 -15 3 0 -2 50 -15
148 -4 23 -9 42 -13 41 -3 0 -37 -9 -76 -20z"/>
<path d="M7646 3585 c-12 -47 -359 -465 -548 -660 -54 -55 -98 -101 -98 -102
0 -1 24 -9 52 -19 29 -9 76 -28 105 -40 36 -16 53 -20 53 -11 0 20 58 128 113
210 61 91 52 90 205 29 l96 -39 -3 -49 c-3 -49 -34 -241 -46 -280 -5 -17 0
-22 37 -33 24 -7 81 -28 127 -47 47 -19 87 -34 90 -34 3 0 5 69 3 152 -3 158
18 516 43 742 9 71 14 130 13 132 -4 3 -223 74 -230 74 -3 0 -9 -11 -12 -25z
m4 -357 c-6 -90 -14 -166 -18 -170 -6 -6 -176 52 -189 65 -3 3 43 67 102 142
59 75 109 134 112 131 3 -2 0 -78 -7 -168z"/>
<path d="M12038 3345 c-2 -3 -40 -12 -84 -21 -43 -9 -80 -18 -82 -19 -2 -2 10
-41 26 -86 50 -143 141 -514 128 -526 -7 -7 -316 344 -399 454 -72 95 -79 102
-102 93 -19 -7 -224 -50 -240 -50 -2 0 5 -18 16 -39 31 -65 65 -196 103 -401
39 -214 66 -406 66 -477 0 -37 3 -44 16 -39 9 3 54 14 100 23 70 13 84 19 78
32 -19 44 -68 198 -93 296 -34 128 -85 375 -78 381 2 2 69 -71 148 -163 280
-326 410 -465 428 -457 9 3 45 14 81 23 78 21 76 5 27 231 -56 256 -85 421
-104 593 -17 145 -21 166 -35 152z"/>
<path d="M8403 3330 c-134 -28 -227 -112 -286 -258 -74 -180 -88 -394 -34
-504 70 -143 262 -234 492 -233 86 1 108 5 155 26 112 52 180 137 229 286 98
293 51 495 -140 606 -99 58 -316 98 -416 77z m276 -129 c114 -59 138 -228 65
-477 -57 -199 -133 -284 -254 -284 -205 0 -272 199 -173 515 32 102 55 146
101 197 72 80 166 97 261 49z"/>
<path d="M9457 3114 c-3 -27 -9 -58 -13 -68 -6 -17 -4 -18 17 -12 13 4 80 10
148 13 l124 6 -7 -184 c-7 -200 -31 -505 -46 -609 -5 -36 -10 -70 -10 -76 0
-8 33 -14 93 -18 50 -4 108 -9 127 -12 l35 -5 -3 168 c-2 92 4 279 12 415 9
136 16 258 16 272 0 24 4 26 39 26 33 0 133 -17 217 -37 17 -4 22 2 31 44 7
26 15 56 18 66 7 16 -2 17 -101 17 -108 0 -498 23 -625 36 l-66 6 -6 -48z"/>
<path d="M10623 3140 c-120 -22 -218 -76 -273 -151 -54 -76 -73 -141 -78 -280
-9 -268 69 -452 221 -519 130 -58 368 -45 509 26 136 69 198 196 198 405 0
269 -84 438 -248 499 -66 25 -242 35 -329 20z m224 -126 c82 -66 124 -206 126
-414 1 -151 -16 -221 -70 -280 -56 -63 -156 -86 -231 -54 -122 51 -178 204
-170 462 4 101 10 148 22 177 47 107 110 148 218 143 57 -3 72 -8 105 -34z"/>
</g>
</svg>
